<svg width="131" height="159" viewBox="0 0 131 159" fill="none" xmlns="http://www.w3.org/2000/svg">
<g clip-path="url(#clip0_18_91)">
<path d="M16.375 0C12.0321 0 7.86703 2.09397 4.79613 5.82125C1.72522 9.54854 0 14.6038 0 19.875L0 139.125C0 144.396 1.72522 149.451 4.79613 153.179C7.86703 156.906 12.0321 159 16.375 159H114.625C118.968 159 123.133 156.906 126.204 153.179C129.275 149.451 131 144.396 131 139.125V19.875C131 14.6038 129.275 9.54854 126.204 5.82125C123.133 2.09397 118.968 0 114.625 0L16.375 0ZM43.8359 46.1696L65.5 72.4742L87.1641 46.1696C87.5447 45.7076 87.9966 45.3412 88.4939 45.0912C88.9912 44.8412 89.5242 44.7125 90.0625 44.7125C90.6008 44.7125 91.1338 44.8412 91.6311 45.0912C92.1284 45.3412 92.5803 45.7076 92.9609 46.1696C93.3415 46.6316 93.6434 47.18 93.8494 47.7836C94.0554 48.3872 94.1614 49.0342 94.1614 49.6875C94.1614 50.3408 94.0554 50.9878 93.8494 51.5914C93.6434 52.195 93.3415 52.7434 92.9609 53.2054L71.2886 79.5L92.9609 105.795C93.3415 106.257 93.6434 106.805 93.8494 107.409C94.0554 108.012 94.1614 108.659 94.1614 109.312C94.1614 109.966 94.0554 110.613 93.8494 111.216C93.6434 111.82 93.3415 112.368 92.9609 112.83C92.5803 113.292 92.1284 113.659 91.6311 113.909C91.1338 114.159 90.6008 114.288 90.0625 114.288C89.5242 114.288 88.9912 114.159 88.4939 113.909C87.9966 113.659 87.5447 113.292 87.1641 112.83L65.5 86.5258L43.8359 112.83C43.4553 113.292 43.0034 113.659 42.5061 113.909C42.0088 114.159 41.4758 114.288 40.9375 114.288C40.3992 114.288 39.8662 114.159 39.3689 113.909C38.8716 113.659 38.4197 113.292 38.0391 112.83C37.6585 112.368 37.3566 111.82 37.1506 111.216C36.9446 110.613 36.8386 109.966 36.8386 109.312C36.8386 108.659 36.9446 108.012 37.1506 107.409C37.3566 106.805 37.6585 106.257 38.0391 105.795L59.7114 79.5L38.0391 53.2054C37.2704 52.2724 36.8386 51.007 36.8386 49.6875C36.8386 48.368 37.2704 47.1026 38.0391 46.1696C38.8078 45.2366 39.8504 44.7125 40.9375 44.7125C42.0246 44.7125 43.0672 45.2366 43.8359 46.1696Z" fill="#E45858"/>
</g>
<defs>
<clipPath id="clip0_18_91">
<rect width="131" height="159" fill="white"/>
</clipPath>
</defs>
</svg>
