<svg width="131" height="159" viewBox="0 0 131 159" fill="none" xmlns="http://www.w3.org/2000/svg">
<path d="M109.167 0H21.8333C16.0428 0 10.4894 2.09397 6.39483 5.82125C2.30029 9.54854 0 14.6038 0 19.875V139.125C0 144.396 2.30029 149.451 6.39483 153.179C10.4894 156.906 16.0428 159 21.8333 159H109.167C114.957 159 120.511 156.906 124.605 153.179C128.7 149.451 131 144.396 131 139.125V19.875C131 14.6038 128.7 9.54854 124.605 5.82125C120.511 2.09397 114.957 0 109.167 0ZM96.6562 68.1116L63.9062 97.9241C63.3991 98.3868 62.7968 98.754 62.1337 99.0045C61.4705 99.2549 60.7596 99.3839 60.0417 99.3839C59.3237 99.3839 58.6128 99.2549 57.9497 99.0045C57.2865 98.754 56.6842 98.3868 56.1772 97.9241L39.8022 83.0179C39.2947 82.5559 38.8921 82.0075 38.6175 81.4039C38.3428 80.8003 38.2014 80.1533 38.2014 79.5C38.2014 78.8467 38.3428 78.1997 38.6175 77.5961C38.8921 76.9925 39.2947 76.4441 39.8022 75.9821C40.3097 75.5201 40.9121 75.1537 41.5752 74.9037C42.2383 74.6537 42.949 74.525 43.6667 74.525C44.3844 74.525 45.0951 74.6537 45.7581 74.9037C46.4212 75.1537 47.0237 75.5201 47.5312 75.9821L60.0417 87.3804L88.9272 61.0759C89.9521 60.1429 91.3422 59.6187 92.7917 59.6187C94.2411 59.6187 95.6312 60.1429 96.6562 61.0759C97.6811 62.0089 98.2569 63.2743 98.2569 64.5938C98.2569 65.9132 97.6811 67.1786 96.6562 68.1116Z" fill="#23AF29"/>
</svg>
