<svg width="131" height="159" viewBox="0 0 131 159" fill="none" xmlns="http://www.w3.org/2000/svg">
<g clip-path="url(#clip0_2_59)">
<path d="M16.375 0C12.0321 0 7.86703 2.09397 4.79613 5.82125C1.72522 9.54854 0 14.6038 0 19.875L0 139.125C0 144.396 1.72522 149.451 4.79613 153.179C7.86703 156.906 12.0321 159 16.375 159H114.625C118.968 159 123.133 156.906 126.204 153.179C129.275 149.451 131 144.396 131 139.125V19.875C131 14.6038 129.275 9.54854 126.204 5.82125C123.133 2.09397 118.968 0 114.625 0L16.375 0ZM44.9985 59.9529C44.7346 59.9573 44.4727 59.8962 44.2289 59.7735C43.9851 59.6508 43.7645 59.469 43.5805 59.2392C43.3966 59.0095 43.2532 58.7366 43.1592 58.4373C43.0651 58.1379 43.0223 57.8184 43.0335 57.4984C43.8031 40.6543 55.1592 34.7812 65.5409 34.7812C76.9707 34.7812 87.4179 42.0356 87.4179 57.0413C87.4179 67.7738 82.2189 72.8816 77.2327 77.4827C71.1985 83.0378 68.9633 85.1147 68.9633 92.2498V93.2932C68.9633 93.9521 68.7477 94.5841 68.3638 95.05C67.9799 95.5159 67.4593 95.7776 66.9164 95.7776H60.2846C59.7473 95.7777 59.2316 95.5214 58.8487 95.0641C58.4657 94.6067 58.2463 93.985 58.2377 93.333L58.2049 91.1766C57.8938 81.9645 62.2578 76.2902 67.7679 71.4308C72.5986 67.0185 75.6689 64.1168 75.6689 57.8064C75.6689 49.608 70.5271 46.1994 64.9105 46.1994C58.3359 46.1994 54.6516 50.9496 53.9229 57.4686C53.7755 58.83 52.8749 59.9529 51.745 59.9529H44.9985ZM64.0344 123.98C59.2529 123.98 55.7732 120.065 55.7732 114.768C55.7732 109.283 59.2529 105.427 64.0426 105.427C69.0288 105.427 72.4594 109.283 72.4594 114.768C72.4594 120.065 69.0206 123.98 64.0344 123.98Z" fill="#6246EA"/>
</g>
<defs>
<clipPath id="clip0_2_59">
<rect width="131" height="159" fill="white"/>
</clipPath>
</defs>
</svg>
