<svg width="250" height="250" viewBox="0 0 250 250" fill="none" xmlns="http://www.w3.org/2000/svg">
<g clip-path="url(#clip0_2_28)">
<path d="M179.063 2.28125C177.598 0.820798 175.615 0.000439359 173.547 0L76.4531 0C74.3851 0.000439359 72.4016 0.820798 70.9375 2.28125L2.28125 70.9375C0.820798 72.4016 0.000439359 74.3851 0 76.4531L0 173.547C0.000439359 175.615 0.820798 177.598 2.28125 179.063L70.9375 247.719C72.4016 249.179 74.3851 250 76.4531 250H173.547C175.615 250 177.598 249.179 179.063 247.719L247.719 179.063C249.179 177.598 250 175.615 250 173.547V76.4531C250 74.3851 249.179 72.4016 247.719 70.9375L179.063 2.28125ZM85.875 94.2656C85.3713 94.2725 84.8716 94.1765 84.4063 93.9835C83.941 93.7905 83.52 93.5047 83.1689 93.1434C82.8179 92.7822 82.5443 92.3531 82.3648 91.8825C82.1853 91.4118 82.1037 90.9095 82.125 90.4062C83.5938 63.9219 105.266 54.6875 125.078 54.6875C146.891 54.6875 166.828 66.0937 166.828 89.6875C166.828 106.562 156.906 114.594 147.391 121.828C135.875 130.562 131.609 133.828 131.609 145.047V146.687C131.609 147.723 131.198 148.717 130.465 149.45C129.733 150.182 128.739 150.594 127.703 150.594H115.047C114.022 150.594 113.037 150.191 112.307 149.472C111.576 148.753 111.157 147.775 111.141 146.75L111.078 143.359C110.484 128.875 118.813 119.953 129.328 112.313C138.547 105.375 144.406 100.812 144.406 90.8906C144.406 78 134.594 72.6406 123.875 72.6406C111.328 72.6406 104.297 80.1094 102.906 90.3594C102.625 92.5 100.906 94.2656 98.75 94.2656H85.875ZM122.203 194.937C113.078 194.937 106.437 188.781 106.437 180.453C106.437 171.828 113.078 165.766 122.219 165.766C131.734 165.766 138.281 171.828 138.281 180.453C138.281 188.781 131.719 194.937 122.203 194.937Z" fill="#E45858"/>
</g>
<defs>
<clipPath id="clip0_2_28">
<rect width="250" height="250" fill="white"/>
</clipPath>
</defs>
</svg>
