<svg width="214" height="200" viewBox="0 0 214 200" fill="none" xmlns="http://www.w3.org/2000/svg">
<g clip-path="url(#clip0_2_26)">
<path d="M40.125 0C29.4832 0 19.2772 3.95088 11.7523 10.9835C4.22744 18.0161 0 27.5544 0 37.5L0 162.5C0 172.446 4.22744 181.984 11.7523 189.017C19.2772 196.049 29.4832 200 40.125 200H173.875C184.517 200 194.723 196.049 202.248 189.017C209.773 181.984 214 172.446 214 162.5V37.5C214 27.5544 209.773 18.0161 202.248 10.9835C194.723 3.95088 184.517 0 173.875 0L40.125 0ZM73.5625 50C73.5625 54.9728 71.4488 59.7419 67.6863 63.2583C63.9239 66.7746 58.8209 68.75 53.5 68.75C48.1791 68.75 43.0761 66.7746 39.3137 63.2583C35.5512 59.7419 33.4375 54.9728 33.4375 50C33.4375 45.0272 35.5512 40.2581 39.3137 36.7417C43.0761 33.2254 48.1791 31.25 53.5 31.25C58.8209 31.25 63.9239 33.2254 67.6863 36.7417C71.4488 40.2581 73.5625 45.0272 73.5625 50ZM180.562 150C180.562 154.973 178.449 159.742 174.686 163.258C170.924 166.775 165.821 168.75 160.5 168.75C155.179 168.75 150.076 166.775 146.314 163.258C142.551 159.742 140.438 154.973 140.438 150C140.438 145.027 142.551 140.258 146.314 136.742C150.076 133.225 155.179 131.25 160.5 131.25C165.821 131.25 170.924 133.225 174.686 136.742C178.449 140.258 180.562 145.027 180.562 150ZM107 118.75C101.679 118.75 96.5761 116.775 92.8137 113.258C89.0512 109.742 86.9375 104.973 86.9375 100C86.9375 95.0272 89.0512 90.2581 92.8137 86.7417C96.5761 83.2254 101.679 81.25 107 81.25C112.321 81.25 117.424 83.2254 121.186 86.7417C124.949 90.2581 127.062 95.0272 127.062 100C127.062 104.973 124.949 109.742 121.186 113.258C117.424 116.775 112.321 118.75 107 118.75Z" fill="#E45858"/>
</g>
<defs>
<clipPath id="clip0_2_26">
<rect width="214" height="200" fill="white"/>
</clipPath>
</defs>
</svg>
